<?xml version="1.0" standalone="no"?>
<!DOCTYPE svg PUBLIC "-//W3C//DTD SVG 20010904//EN"
 "http://www.w3.org/TR/2001/REC-SVG-20010904/DTD/svg10.dtd">
<svg version="1.0" xmlns="http://www.w3.org/2000/svg"
 width="512.000000pt" height="512.000000pt" viewBox="0 0 512.000000 512.000000"
 preserveAspectRatio="xMidYMid meet">

<g transform="translate(0.000000,512.000000) scale(0.100000,-0.100000)"
fill="#FF69B4" stroke="none">
<path d="M1843 4791 c-58 -15 -137 -67 -174 -116 -66 -86 -69 -106 -69 -491
l0 -343 -522 -3 -523 -3 -65 -36 c-43 -23 -78 -52 -102 -84 -73 -96 -69 -14
-66 -1335 l3 -1185 27 -51 c40 -76 70 -107 140 -145 l63 -34 1083 -3 1082 -2
0 160 0 160 -1040 0 -1040 0 0 1120 0 1120 1920 0 1920 0 0 -400 0 -400 160 0
161 0 -3 443 -3 442 -27 51 c-40 76 -70 107 -140 145 l-63 34 -522 3 -522 3
-3 362 -3 362 -27 51 c-40 76 -70 107 -140 145 l-63 34 -705 2 c-388 1 -719
-2 -737 -6z m1357 -631 l0 -320 -640 0 -640 0 0 320 0 320 640 0 640 0 0 -320z"/>
<path d="M3040 2080 l0 -320 320 0 320 0 0 320 0 320 -320 0 -320 0 0 -320z"/>
<path d="M4160 2080 l0 -320 320 0 320 0 0 320 0 320 -320 0 -320 0 0 -320z"/>
<path d="M3040 960 l0 -320 320 0 320 0 0 320 0 320 -320 0 -320 0 0 -320z"/>
<path d="M4160 960 l0 -320 320 0 320 0 0 320 0 320 -320 0 -320 0 0 -320z"/>
</g>
</svg>
